Coordinates
version=1
nRows=11
nColumns=36
inDegrees=yes

Units are S.I. units (second, meters, Newtons, ...)
If the header above contains a line with 'inDegrees', this indicates whether rotational values are in degrees (yes) or radians (no).

endheader
time	pelvis_tilt	pelvis_list	pelvis_rotation	pelvis_tx	pelvis_ty	pelvis_tz	hip_flexion_r	hip_adduction_r	hip_rotation_r	knee_angle_r	knee_angle_r_beta	ankle_angle_r	subtalar_angle_r	mtp_angle_r	hip_flexion_l	hip_adduction_l	hip_rotation_l	knee_angle_l	knee_angle_l_beta	ankle_angle_l	subtalar_angle_l	mtp_angle_l	lumbar_extension	lumbar_bending	lumbar_rotation	arm_flex_r	arm_add_r	arm_rot_r	elbow_flex_r	pro_sup_r	arm_flex_l	arm_add_l	arm_rot_l	elbow_flex_l	pro_sup_l
      1.50000000	    -16.98767279	     -0.27928132	      3.60494911	     -0.46575340	      1.14775130	     -0.59896009	     31.92738245	     -8.61501980	    -15.41605068	      9.10954858	      0.15899162	    -32.60388224	     -4.99717239	     -6.04923195	     37.55536818	     -6.36482941	     -3.48607872	     16.08146350	      0.28067449	    -30.42256803	     -0.60519555	     -6.04923195	    -10.36409596	      1.32531128	     -2.85024342	    -13.30743025	    -13.21375684	    -10.65958403	     34.99892321	    109.00943336	    -13.47084341	    -16.06993113	    -12.18696091	     30.30536005	    108.39535954
      1.51000000	    -17.06626611	     -0.31421065	      3.81441341	     -0.45503857	      1.12806501	     -0.59956245	     32.83281316	     -8.99101881	    -16.28556388	      8.51086980	      0.14854270	    -32.62811989	     -2.93965257	     -6.11963303	     38.62487806	     -6.58845939	     -4.24935883	     15.44348218	      0.26953961	    -30.64868629	      0.93775532	     -6.11963303	    -10.83141807	      1.44450780	     -2.79948159	    -15.36466959	    -12.42795120	    -12.88119945	     34.28160887	    108.28133797	    -15.16161440	    -15.65488847	    -13.15847501	     29.48948320	    107.51376293
      1.52000000	    -17.02459658	     -0.34962790	      3.92045641	     -0.44444559	      1.10749948	     -0.59981183	     33.60954306	     -9.21921279	    -16.40734768	      8.01917465	      0.13996100	    -33.48885645	     -2.14330013	     -6.13039113	     39.59567824	     -6.81774117	     -4.82791096	     15.07351470	      0.26308246	    -31.65252950	      1.32423900	     -6.13039113	    -11.39831693	      1.55916856	     -2.88950362	    -17.19747840	    -12.01389929	    -13.43989308	     33.53806790	    108.19587659	    -17.00560035	    -15.37039299	    -13.43278592	     28.60980175	    107.35093969
      1.53000000	    -16.80611695	     -0.33813827	      4.00244130	     -0.43371873	      1.08607519	     -0.60010762	     34.25935952	     -9.49763075	    -16.20894464	      7.96956464	      0.13909514	    -33.70571522	     -1.52551781	     -6.23146221	     40.39644885	     -6.97942720	     -5.33156066	     15.05688562	      0.26279223	    -32.74233075	      1.11102416	     -6.23146221	    -12.15617100	      1.65653053	     -2.65145603	    -19.32147882	    -10.98370120	    -16.43749708	     33.63936706	    107.72060067	    -18.60397466	    -14.87354663	    -14.71696346	     28.17520461	    106.33525986
      1.54000000	    -16.42271767	     -0.31336246	      4.09977679	     -0.42279012	      1.06380383	     -0.60057115	     34.76696037	     -9.79932707	    -15.81443901	      8.27544970	      0.14443384	    -33.99685833	     -1.30247066	     -6.25642676	     41.04997216	     -7.11276702	     -5.60938883	     15.42073144	      0.26914254	    -33.47345016	      1.22622930	     -6.25642676	    -13.06194246	      1.68491708	     -2.60898128	    -21.19011602	    -10.49044372	    -16.75286077	     33.13323697	    107.28258950	    -20.33380365	    -14.57780323	    -14.96691834	     27.67751936	    105.81206722
      1.55000000	    -16.03639381	     -0.20697718	      4.00117506	     -0.41178952	      1.04043906	     -0.60073787	     35.52937544	    -10.06707761	    -14.94547323	      9.31840272	      0.16263681	    -34.23874932	     -1.60842039	     -6.29537925	     41.69746393	     -7.31049439	     -5.94456993	     16.18416087	      0.28246689	    -34.58552839	      0.78840182	     -6.29537925	    -13.90953983	      1.58760747	     -2.37439505	    -23.03291091	     -9.89918729	    -17.48404093	     32.72863449	    106.66032534	    -22.07068326	    -14.15743605	    -15.55893103	     27.28652272	    105.00367270
      1.56000000	    -15.64317677	     -0.08748044	      3.85793836	     -0.40085203	      1.01601220	     -0.60092112	     36.37358976	    -10.24949132	    -13.56927991	     10.82466661	      0.18892607	    -34.27703726	     -3.17144923	     -6.38685008	     42.24108227	     -7.34359645	     -5.45876573	     17.17413283	      0.29974516	    -35.39384078	     -1.66712764	     -6.38685008	    -14.73068488	      1.52760772	     -2.04343527	    -25.04683244	     -8.93780459	    -19.91346737	     33.13524624	    106.62048513	    -23.81235857	    -13.46624671	    -17.23788309	     27.45961448	    103.92929532
      1.57000000	    -15.04908418	     -0.01401753	      3.78175600	     -0.38938665	      0.99071492	     -0.60129013	     37.09912373	    -10.53267679	    -12.69335660	     12.64413655	      0.22068181	    -34.23916573	     -2.95319275	     -6.43325716	     42.68657777	     -7.47983726	     -5.13514443	     18.63128682	      0.32517730	    -35.10198375	     -1.96567034	     -6.43325716	    -15.66208928	      1.56563850	     -1.94458791	    -26.87661078	     -8.44038335	    -20.21261076	     33.06717988	    105.60577186	    -25.63382438	    -12.96420073	    -17.49368121	     27.32025618	    102.80778415
      1.58000000	    -14.64507937	      0.10548027	      3.68601553	     -0.37794515	      0.96398837	     -0.60174225	     38.11173991	    -10.78759824	    -11.50937339	     14.45723758	      0.25232640	    -36.19976396	     -4.09080387	     -6.49290337	     43.27005394	     -7.40561842	     -4.40496846	     19.74943772	      0.34469271	    -37.50248414	     -4.26150439	     -6.49290337	    -16.26597073	      1.58313383	     -1.76360221	    -28.85321474	     -7.67042169	    -21.98672839	     33.26061121	    106.30273796	    -27.35609235	    -12.33775598	    -18.80281875	     27.13650194	    102.52999730
      1.59000000	    -14.27442738	      0.11051611	      3.44111362	     -0.36726494	      0.93631157	     -0.60197214	     39.47727293	    -10.83830099	    -10.26784104	     18.05247278	      0.31507509	    -33.49490519	     -5.50239638	     -6.61879868	     44.03418340	     -7.53061997	     -3.35599777	     21.94439811	      0.38300200	    -37.18043542	     -5.46179322	     -6.61879868	    -16.90922248	      1.68344722	     -1.45664505	    -30.69095810	     -6.98097367	    -23.50580872	     33.57437992	    106.87472101	    -29.13971359	    -11.63184360	    -20.13316942	     27.49852769	    101.92225175
      1.60000000	    -14.29369063	      0.09217266	      3.11640727	     -0.35789671	      0.90728790	     -0.60209356	     41.89451296	    -10.81638608	     -8.74498253	     25.26298195	      0.44092221	    -20.73484244	     -8.28167300	     -6.88883056	     45.58102369	     -7.70767519	     -1.71080013	     27.26655048	      0.47589108	    -28.16612160	     -6.82003704	     -6.88883056	    -17.22287844	      1.75746782	     -1.16068625	    -32.29358119	     -6.55583671	    -24.29011921	     33.44364638	    109.45435091	    -30.79675322	    -11.00885937	    -20.93286755	     27.46327919	    102.89185421
